<svg width="18" height="17" viewBox="0 0 18 17" fill="none" xmlns="http://www.w3.org/2000/svg">
	<path d="M16.7363 5.89454L11.7774 5.17384L9.56055 0.679695C9.50001 0.556648 9.4004 0.457038 9.27735 0.396492C8.96876 0.244148 8.59376 0.371101 8.43946 0.679695L6.22266 5.17384L1.26368 5.89454C1.12696 5.91407 1.00196 5.97852 0.906256 6.07618C0.790556 6.1951 0.7268 6.35509 0.728998 6.52099C0.731195 6.68689 0.799166 6.84513 0.917975 6.96095L4.50587 10.459L3.65821 15.3984C3.63833 15.5133 3.65105 15.6315 3.69491 15.7396C3.73878 15.8476 3.81204 15.9412 3.90639 16.0097C4.00074 16.0783 4.1124 16.119 4.22872 16.1273C4.34503 16.1356 4.46134 16.1111 4.56446 16.0566L9.00001 13.7246L13.4356 16.0566C13.5566 16.1211 13.6973 16.1426 13.832 16.1191C14.1719 16.0606 14.4004 15.7383 14.3418 15.3984L13.4941 10.459L17.082 6.96095C17.1797 6.86524 17.2441 6.74024 17.2637 6.60352C17.3164 6.26173 17.0781 5.94532 16.7363 5.89454Z" fill="white" />
</svg>
