<svg width="110" height="110" viewBox="0 0 110 110" fill="none" xmlns="http://www.w3.org/2000/svg">
<path d="M17.9644 46.2665V74.6134C17.9644 75.7105 17.0091 76.5796 15.9181 76.444C7.97922 75.4393 1.83401 68.6531 1.83401 60.4368C1.83401 52.2206 7.97922 45.4405 15.9181 44.4359C17.0091 44.3002 17.9644 45.1693 17.9644 46.2665Z" fill="#003B55"/>
<path d="M22.8521 78.0909C21.4529 78.0909 20.3126 76.9567 20.3126 75.5514V45.3246C20.3126 43.9254 21.4467 42.7852 22.8521 42.7852C24.2574 42.7852 25.3915 43.9193 25.3915 45.3246V75.5514C25.3915 76.9567 24.2574 78.0909 22.8521 78.0909Z" fill="#003B55"/>
<path d="M95.8863 43.4186C95.8863 44.4849 95.8431 45.5327 95.7692 46.5744H91.7874C91.8799 45.5327 91.923 44.4787 91.923 43.4186C91.923 40.1271 91.4977 36.9405 90.7026 33.8956H87.177C83.0534 19.6328 69.8939 9.1915 54.2997 9.1915C38.7056 9.1915 25.546 19.6267 21.4164 33.8956H17.8907C17.0956 36.9343 16.6703 40.1271 16.6703 43.4186C16.6703 44.4849 16.7134 45.5389 16.8059 46.5744H12.8241C12.7502 45.5266 12.707 44.4787 12.707 43.4186C12.7132 20.4526 31.3338 1.83203 54.2997 1.83203C77.2657 1.83203 95.8863 20.4526 95.8863 43.4186Z" fill="#003B55"/>
<path d="M90.6291 46.2693V74.6162C90.6291 75.7134 91.5845 76.5825 92.6755 76.4469C100.614 75.4422 106.76 68.6559 106.76 60.4459C106.76 52.2358 100.614 45.4496 92.6755 44.4449C91.5907 44.3031 90.6291 45.1722 90.6291 46.2693Z" fill="#003B55"/>
<path d="M85.7416 78.0909C87.1408 78.0909 88.281 76.9567 88.281 75.5514V45.3246C88.281 43.9254 87.1469 42.7852 85.7416 42.7852C84.3424 42.7852 83.2021 43.9193 83.2021 45.3246V75.5514C83.2021 76.9567 84.3424 78.0909 85.7416 78.0909Z" fill="#003B55"/>
<path d="M61.8418 108.167V92.2175H63.0335V101.175C63.0335 101.625 63.0004 102.082 62.9342 102.546C62.868 103.009 62.7885 103.473 62.6959 103.936H65.258C65.2978 103.711 65.3309 103.486 65.3574 103.261C65.3971 103.036 65.4302 102.811 65.4567 102.585C66.0128 103.618 66.9728 104.135 68.3366 104.135C69.6873 104.135 70.7068 103.651 71.3954 102.685C72.0972 101.718 72.4481 100.573 72.4481 99.2486C72.4481 97.8451 72.0906 96.7526 71.3755 95.9714C70.6605 95.1902 69.7402 94.7996 68.6147 94.7996C67.807 94.7996 67.1582 94.9849 66.6682 95.3557C66.1916 95.7264 65.834 96.17 65.5957 96.6864V90.271H61.8418V85.7227H73.0439V108.167H61.8418ZM69.7866 99.4671C69.7866 100.381 69.5813 101.056 69.1708 101.493C68.7736 101.917 68.2837 102.129 67.7011 102.129C67.0258 102.129 66.5027 101.884 66.132 101.394C65.7745 100.891 65.5957 100.275 65.5957 99.5466V99.3281C65.5957 98.666 65.7811 98.0834 66.1518 97.5802C66.5358 97.0771 67.0721 96.8255 67.7607 96.8255C68.3698 96.8255 68.8597 97.0506 69.2304 97.5008C69.6012 97.951 69.7866 98.6064 69.7866 99.4671Z" fill="#01ABF6"/>
<path d="M72.6456 108.167V85.7227H82.6163V108.167H72.6456ZM82.0403 101.116L79.8952 100.718C79.8422 100.983 79.69 101.281 79.4384 101.612C79.2 101.943 78.7366 102.109 78.048 102.109C76.7901 102.109 76.0883 101.4 75.9427 99.9835H81.8218C81.9145 99.5598 81.9608 99.1295 81.9608 98.6925C81.9476 97.5273 81.5504 96.5871 80.7691 95.8721C80.0011 95.1571 78.9948 94.7996 77.7501 94.7996C76.3333 94.7996 75.2277 95.263 74.4332 96.1899C73.6519 97.1035 73.2613 98.2489 73.2613 99.626C73.2613 101.122 73.6917 102.248 74.5523 103.003C75.4263 103.757 76.5319 104.135 77.8693 104.135C79.1537 104.135 80.1534 103.83 80.8684 103.221C81.5835 102.612 81.9741 101.91 82.0403 101.116ZM79.3192 98.4939H75.9625C76.042 97.9377 76.2274 97.4875 76.5187 97.1433C76.81 96.799 77.2205 96.6269 77.7501 96.6269C78.3592 96.6269 78.7829 96.8255 79.0213 97.2227C79.2729 97.62 79.3722 98.0437 79.3192 98.4939Z" fill="#01ABF6"/>
<path d="M82.1489 108.167V85.7227H91.6628V108.167H82.1489ZM90.9875 101.195C90.9875 100.334 90.7226 99.7253 90.193 99.3678C89.6766 98.997 89.0675 98.7521 88.3657 98.6329C87.6771 98.5137 87.0681 98.3946 86.5384 98.2754C86.022 98.143 85.7638 97.8848 85.7638 97.5008C85.7638 97.2095 85.8763 96.9976 86.1014 96.8652C86.3398 96.7195 86.6245 96.6467 86.9555 96.6467C87.4587 96.6467 87.9287 96.7195 88.3657 96.8652L88.5246 98.1165L90.5108 97.898L90.2923 95.6139C89.2462 95.071 88.1274 94.7996 86.9356 94.7996C86.022 94.7996 85.1348 94.9916 84.2741 95.3756C83.4267 95.7463 83.003 96.4812 83.003 97.5802C83.003 98.4674 83.2744 99.0964 83.8173 99.4671C84.3602 99.8379 84.9892 100.083 85.7042 100.202C86.4192 100.321 87.0482 100.44 87.5911 100.56C88.134 100.679 88.4054 100.93 88.4054 101.314C88.4054 101.632 88.2267 101.87 87.8691 102.029C87.5116 102.188 87.0879 102.268 86.598 102.268C86.4656 102.268 86.267 102.261 86.0021 102.248C85.7373 102.221 85.4857 102.168 85.2474 102.089V100.977L83.2612 100.758L82.9037 103.261C83.4995 103.565 84.1219 103.79 84.7707 103.936C85.4328 104.068 86.0882 104.135 86.737 104.135C87.9949 104.135 89.0145 103.896 89.7958 103.42C90.5902 102.93 90.9875 102.188 90.9875 101.195Z" fill="#01ABF6"/>
<path d="M91.2274 108.167V85.7227H99.5297V108.167H91.2274ZM99.331 101.155L97.464 100.579C97.3846 101.241 97.219 101.645 96.9675 101.791C96.7291 101.923 96.5305 101.99 96.3716 101.99C95.7095 101.99 95.3785 101.599 95.3785 100.818V96.8056H98.5961V94.9783H95.3785V92.2572H92.8163V94.9783H91.5452V96.8056H92.8163V101.255C92.8163 102.182 93.1076 102.897 93.6902 103.4C94.2861 103.89 95.0806 104.135 96.0737 104.135C97.9937 104.135 99.0794 103.142 99.331 101.155Z" fill="#01ABF6"/>
<path d="M8.77344 85.7227H22.1604V101.672H20.9289L16.2812 91.0258H11.852V93.2901H13.6396L9.94529 101.672H8.77344V85.7227ZM15.5066 94.8194L16.8572 98.4542H13.9375L15.3875 94.8194H15.5066ZM22.1604 108.167H8.77344V103.936H13.8581V101.672H12.6465L13.1828 100.361H17.5723L18.049 101.672H17.0161V103.936H22.1604V108.167Z" fill="#003B55"/>
<path d="M21.769 108.167V85.7227H27.8071V108.167H21.769ZM22.3252 103.936H27.2708V102.009H26.0791V90.271H22.2259V92.2175H23.5169V102.009H22.3252V103.936Z" fill="#003B55"/>
<path d="M27.3746 108.167V85.7227H33.4126V108.167H27.3746ZM27.9307 103.936H32.8764V102.009H31.6846V90.271H27.8314V92.2175H29.1224V102.009H27.9307V103.936Z" fill="#003B55"/>
<path d="M32.9802 108.167V85.7227H41.2825V108.167H32.9802ZM41.0838 101.155L39.2168 100.579C39.1374 101.241 38.9718 101.645 38.7203 101.791C38.4819 101.923 38.2833 101.99 38.1244 101.99C37.4623 101.99 37.1313 101.599 37.1313 100.818V96.8056H40.3489V94.9783H37.1313V92.2572H34.5691V94.9783H33.298V96.8056H34.5691V101.255C34.5691 102.182 34.8604 102.897 35.443 103.4C36.0389 103.89 36.8334 104.135 37.8265 104.135C39.7465 104.135 40.8322 103.142 41.0838 101.155Z" fill="#003B55"/>
<path d="M40.8939 108.167V85.7227H52.8111V108.167H40.8939ZM47.4285 103.936H52.3741V102.009H51.1824V97.898C51.1824 96.8387 50.8712 96.0575 50.2489 95.5543C49.6265 95.0511 48.8916 94.7996 48.0442 94.7996C46.7201 94.7996 45.7601 95.316 45.1642 96.3488V90.271H41.4103V92.2175H42.602V102.009H41.4103V103.936H46.3559V102.009H45.1642V98.6925C45.1907 98.1099 45.3628 97.6398 45.6806 97.2823C46.0117 96.9248 46.4685 96.746 47.0511 96.746C47.5543 96.746 47.9383 96.9115 48.2031 97.2426C48.4812 97.5736 48.6202 98.1231 48.6202 98.8911V102.009H47.4285V103.936Z" fill="#003B55"/>
<path d="M52.4348 108.167V85.7227H62.4055V108.167H52.4348ZM61.8295 101.116L59.6844 100.718C59.6314 100.983 59.4791 101.281 59.2276 101.612C58.9892 101.943 58.5258 102.109 57.8372 102.109C56.5793 102.109 55.8775 101.4 55.7318 99.9835H61.611C61.7037 99.5598 61.75 99.1295 61.75 98.6925C61.7368 97.5273 61.3395 96.5871 60.5583 95.8721C59.7903 95.1571 58.784 94.7996 57.5393 94.7996C56.1225 94.7996 55.0168 95.263 54.2223 96.1899C53.4411 97.1035 53.0505 98.2489 53.0505 99.626C53.0505 101.122 53.4808 102.248 54.3415 103.003C55.2154 103.757 56.3211 104.135 57.6585 104.135C58.9429 104.135 59.9426 103.83 60.6576 103.221C61.3726 102.612 61.7633 101.91 61.8295 101.116ZM59.1084 98.4939H55.7517C55.8312 97.9377 56.0165 97.4875 56.3078 97.1433C56.5992 96.799 57.0096 96.6269 57.5393 96.6269C58.1484 96.6269 58.5721 96.8255 58.8105 97.2227C59.062 97.62 59.1613 98.0437 59.1084 98.4939Z" fill="#003B55"/>
<path d="M61.1967 32.7891C62.7036 36.8708 56.9888 35.8668 56.9888 35.8668L54.631 35.6385L53.595 35.5379C52.3643 35.4517 50.2428 35.4246 48.3783 35.9721C39.4182 38.7257 42.6715 51.0014 42.6715 51.0014H43.0929L43.2525 50.9838C43.6947 50.9455 44.2103 50.9104 44.7626 50.888C44.9127 49.4418 45.2894 48.725 45.5416 48.393C45.6119 48.318 45.7827 48.1951 46.1035 48.3403C48.7997 49.8185 52.9772 47.2963 52.9772 47.2963C52.8511 48.3004 51.8455 49.1177 51.8455 49.1177C57.1213 49.8712 60.8263 45.2866 60.8263 45.2866C62.9015 46.8957 63.6502 50.3501 63.7635 50.92C64.0716 50.9375 64.3605 50.9615 64.6239 50.9838L64.7836 51.0014H65.6057C70.8671 35.9929 61.1967 32.7891 61.1967 32.7891Z" fill="#003B55"/>
<path d="M66.9654 52.1027C66.421 51.9926 65.6548 51.8569 64.7721 51.7547L64.6124 51.7372C64.349 51.7148 64.0601 51.6909 63.752 51.6733C61.3001 51.5264 57.6525 51.5664 55.5773 52.8274L55.5566 52.845L55.4304 52.9232C55.2275 53.0434 55.0096 53.1362 54.7823 53.1994H54.76C54.6552 53.2275 54.5485 53.2478 54.4407 53.26C54.1008 53.3084 53.7558 53.3084 53.4159 53.26C53.2749 53.2421 53.1355 53.2127 52.9993 53.1722L52.9083 53.1419C52.7419 53.0827 52.5816 53.0079 52.4294 52.9184L52.3049 52.8402L52.2841 52.8226C50.3861 51.6685 47.1759 51.536 44.7591 51.6366C44.2036 51.6589 43.6912 51.6941 43.249 51.7324L43.0894 51.7499C42.2082 51.8521 41.442 51.9878 40.8976 52.0979L40.042 52.2991V53.9321C41.1067 54.2162 41.2967 55.4262 41.3318 55.7918C41.3639 56.1304 41.4264 56.4653 41.5186 56.7927C41.5998 57.0983 41.7099 57.3955 41.8474 57.6802L46.0681 60.5536L46.2389 60.5935C49.9104 61.2145 51.7094 59.0179 52.4948 57.5222C52.5188 57.4791 52.5411 57.4392 52.5603 57.3961C52.6034 57.3083 52.6433 57.2237 52.68 57.1375C52.8431 56.7215 52.9775 56.2948 53.0823 55.8604C53.0823 55.8365 53.0934 55.8078 53.0998 55.7854C53.153 55.5797 53.2511 55.3883 53.3872 55.2251C53.4718 55.1277 53.7783 54.8212 54.147 54.9649C54.2603 55.0162 54.3623 55.0895 54.4471 55.1804C54.4783 55.2127 54.5076 55.2468 54.5349 55.2826C54.6428 55.4351 54.7233 55.6052 54.7728 55.7854C54.7803 55.81 54.7862 55.8351 54.7903 55.8604C54.8966 56.2944 55.031 56.721 55.1926 57.1375C55.2309 57.2237 55.2708 57.3083 55.3139 57.3961C55.3347 57.4392 55.357 57.4791 55.3794 57.5222C56.1663 59.0179 57.967 61.2145 61.6369 60.5935L61.8253 60.5488L66.022 57.6946C66.3028 57.0948 66.4783 56.4511 66.5408 55.7918C66.5728 55.4603 66.6602 55.1366 66.7994 54.834C66.8941 54.617 67.0359 54.4237 67.2145 54.2683C67.3932 54.1128 67.6042 53.9991 67.8322 53.9353V52.2991L66.9654 52.1027ZM51.9409 56.5357C51.5992 57.3849 51.0881 58.1556 50.4388 58.8008C48.2822 60.7914 44.4111 59.2015 44.4111 59.2015C41.857 58.2166 42.4636 54.6792 42.4636 54.6792C42.6344 53.4692 43.2729 53.011 43.8173 52.8482C43.9601 52.7941 44.1102 52.7618 44.2626 52.7524C45.1789 52.5928 47.4425 52.3533 50.3286 53.1818C50.3653 53.193 50.4037 53.2026 50.4404 53.2153C51.6584 53.5889 52.0223 54.4924 52.1261 55.1038C52.1801 55.589 52.1166 56.0801 51.9409 56.5357ZM63.4567 59.2015C63.4567 59.2015 59.5856 60.7978 57.4274 58.8008C56.7781 58.1556 56.267 57.3849 55.9253 56.5357C55.7484 56.0788 55.6849 55.5858 55.7401 55.099C55.8423 54.4812 56.2063 53.5841 57.4258 53.2105L57.5392 53.177C60.4221 52.3485 62.6857 52.5864 63.6052 52.7476C63.7571 52.7569 63.9067 52.7892 64.0489 52.8434C64.5949 53.003 65.2318 53.4644 65.4026 54.6744C65.4026 54.6855 66.0108 58.223 63.4567 59.2079V59.2015Z" fill="#01ABF6"/>
<path d="M49.8499 56.1538C49.8502 56.4087 49.7749 56.658 49.6334 56.8701C49.492 57.0822 49.2908 57.2476 49.0554 57.3453C48.8199 57.443 48.5608 57.4686 48.3107 57.419C48.0607 57.3693 47.831 57.2466 47.6507 57.0663C47.4705 56.8861 47.3478 56.6564 47.2981 56.4063C47.2485 56.1563 47.2741 55.8971 47.3718 55.6617C47.4695 55.4262 47.6349 55.2251 47.847 55.0836C48.059 54.9422 48.3083 54.8669 48.5633 54.8672C48.7205 54.8669 48.8765 54.8962 49.023 54.9534L48.5633 56.1538L49.8403 56.0213C49.846 56.0653 49.8492 56.1095 49.8499 56.1538Z" fill="#003B55"/>
<path d="M61.1526 56.1538C61.1529 56.4087 61.0776 56.658 60.9362 56.8701C60.7947 57.0822 60.5936 57.2476 60.3581 57.3453C60.1227 57.443 59.8635 57.4686 59.6135 57.419C59.3634 57.3693 59.1337 57.2466 58.9535 57.0663C58.7732 56.8861 58.6505 56.6564 58.6008 56.4063C58.5512 56.1563 58.5768 55.8971 58.6745 55.6617C58.7722 55.4262 58.9376 55.2251 59.1497 55.0836C59.3618 54.9422 59.6111 54.8669 59.866 54.8672C60.0233 54.8669 60.1792 54.8962 60.3257 54.9534L59.866 56.1538L61.143 56.0213C61.1487 56.0653 61.1519 56.1095 61.1526 56.1538Z" fill="#003B55"/>
<path d="M54.2774 61.2645C53.7558 61.2558 53.2513 61.077 52.8407 60.7553C52.7628 60.6918 52.7133 60.6 52.7031 60.5C52.6929 60.4 52.7229 60.3 52.7864 60.2221C52.8499 60.1442 52.9418 60.0948 53.0418 60.0846C53.1417 60.0744 53.2417 60.1044 53.3196 60.1679C53.4185 60.2461 54.2997 60.9038 55.1059 60.1679C55.1799 60.1008 55.2777 60.0658 55.3775 60.0708C55.4773 60.0757 55.5711 60.1201 55.6382 60.1942C55.7053 60.2683 55.7402 60.366 55.7353 60.4658C55.7304 60.5657 55.686 60.6595 55.6119 60.7266C55.2525 61.0704 54.7747 61.263 54.2774 61.2645Z" fill="#003B55"/>
<path d="M57.984 62.687C57.9825 62.6575 57.9793 62.6282 57.9744 62.5992C57.9744 62.5609 57.9616 62.5257 57.9552 62.4938C57.9563 62.4885 57.9563 62.4831 57.9552 62.4778C57.9479 62.4491 57.9388 62.4209 57.9281 62.3932C57.9288 62.3863 57.9288 62.3794 57.9281 62.3725C57.8435 62.1784 57.6899 62.0225 57.4971 61.9351C57.4501 61.9126 57.4009 61.8949 57.3502 61.8824C57.1847 61.8349 57.0102 61.827 56.8411 61.8595C56.6719 61.8919 56.5127 61.9638 56.3765 62.0692C56.6088 62.1054 56.8323 62.1845 57.0358 62.3023C57.0073 62.3571 56.9758 62.4104 56.9416 62.4619C56.9097 62.513 56.8745 62.5593 56.841 62.6072C56.75 62.7253 56.6606 62.8274 56.6095 62.8849C55.1409 64.4397 52.4959 63.699 52.4591 63.6831C52.4277 63.6734 52.3946 63.6701 52.3619 63.6735C52.3292 63.6769 52.2975 63.6869 52.2687 63.7028C52.2399 63.7188 52.2147 63.7404 52.1945 63.7663C52.1742 63.7923 52.1595 63.8221 52.1511 63.8539C52.1399 63.8853 52.1352 63.9186 52.1372 63.9519C52.1392 63.9852 52.1479 64.0177 52.1628 64.0475C52.1777 64.0773 52.1985 64.1038 52.2239 64.1254C52.2493 64.147 52.2788 64.1632 52.3107 64.1731C52.8479 64.3143 53.401 64.3857 53.9565 64.3854C54.8983 64.3854 56.0588 64.1636 56.9176 63.268L56.9512 63.2313C56.9911 63.1882 57.0294 63.1419 57.0693 63.0972L57.1379 63.0126L57.1874 62.9519C57.2693 62.852 57.3425 62.7452 57.4061 62.6327C57.5728 62.8636 57.6494 63.1474 57.6216 63.4308C57.6216 63.4308 57.9824 63.2984 57.9872 62.7827C57.9872 62.77 57.9872 62.7556 57.9872 62.7396V62.6774L57.984 62.687Z" fill="#003B55"/>
<path d="M53.6163 67.7433L33.4644 59.4169L32.248 58.9141L37.1886 78.1736H53.9339V67.8742L53.6163 67.7433Z" fill="#01ABF6"/>
<path d="M53.6167 66.9881L52.18 66.2123L35.5273 57.2203L33.002 55.8555L33.4649 58.6618L53.6167 66.9881Z" fill="#003B55"/>
<path d="M52.1802 65.4579L34.9688 53.7617L35.5275 56.4659L52.1802 65.4579Z" fill="#003B55"/>
<path d="M55.2545 67.7488L75.4079 59.4208L76.6243 58.918L71.6837 78.1775H54.9384V67.8781L55.2545 67.7488Z" fill="#01ABF6"/>
<path d="M55.2539 66.996L56.6922 66.2202L73.3449 57.2281L75.8703 55.8633L75.4073 58.6696L55.2539 66.996Z" fill="#003B55"/>
<path d="M73.9048 53.0156L73.3461 55.7182L56.6934 64.7118L58.6249 63.398L58.85 63.2448L62.8296 60.5422L67.0263 57.688L73.9048 53.0156Z" fill="#003B55"/>
</svg>
